<svg version="1.0" xmlns="http://www.w3.org/2000/svg"
 width="80.000000pt" height="80.000000pt" viewBox="0 0 80.000000 80.000000"
 preserveAspectRatio="xMidYMid meet">
<g transform="translate(0.000000,80.000000) scale(0.100000,-0.100000)"
stroke="none">
<path d="M154 690 c-12 -4 -31 -21 -43 -36 -19 -24 -21 -39 -21 -161 0 -146 9
-178 53 -202 36 -19 478 -19 514 0 45 24 53 56 53 203 l0 136 -29 32 -29 33
-239 2 c-131 1 -248 -2 -259 -7z m478 -67 c15 -14 18 -32 18 -130 0 -63 -5
-123 -10 -134 -10 -18 -24 -19 -240 -19 -216 0 -230 1 -240 19 -5 11 -10 70
-10 132 0 159 -17 149 248 149 186 0 218 -2 234 -17z"/>
<path d="M253 234 c-16 -7 -17 -40 -2 -50 7 -4 71 -7 143 -6 194 1 178 -2 174
30 l-3 27 -150 2 c-82 1 -156 -1 -162 -3z"/>
</g>
</svg>
